<svg width="11" height="13" viewBox="0 0 11 13" fill="none" xmlns="http://www.w3.org/2000/svg">
<path d="M1.65135 5.83332H9.34935C9.92401 5.83332 10.2293 5.15332 9.84735 4.72332L5.99868 0.393315C5.93625 0.322851 5.85958 0.266438 5.77374 0.227803C5.68789 0.189167 5.59482 0.169189 5.50068 0.169189C5.40654 0.169189 5.31347 0.189167 5.22762 0.227803C5.14178 0.266438 5.06511 0.322851 5.00268 0.393315L1.15268 4.72332C0.77068 5.15332 1.07601 5.83332 1.65135 5.83332ZM5.00201 12.606C5.06444 12.6764 5.14111 12.7329 5.22696 12.7715C5.31281 12.8101 5.40587 12.8301 5.50001 12.8301C5.59415 12.8301 5.68722 12.8101 5.77307 12.7715C5.85891 12.7329 5.93559 12.6764 5.99801 12.606L9.84668 8.27598C10.2293 7.84665 9.92401 7.16665 9.34868 7.16665H1.65135C1.07668 7.16665 0.771347 7.84665 1.15335 8.27665L5.00201 12.606Z" fill="#9E9E9E"/>
</svg>
